<svg xmlns="http://www.w3.org/2000/svg" width="19.476" height="19.476" viewBox="0 0 19.476 19.476">
    <path data-name="Icon simple-instagram" d="M9.738 0C7.092 0 6.762.012 5.723.058A7.18 7.18 0 0 0 3.36.511a4.769 4.769 0 0 0-1.726 1.123A4.751 4.751 0 0 0 .511 3.36a7.159 7.159 0 0 0-.453 2.363C.01 6.762 0 7.092 0 9.738s.012 2.976.058 4.014a7.185 7.185 0 0 0 .453 2.364 4.775 4.775 0 0 0 1.123 1.725 4.762 4.762 0 0 0 1.726 1.123 7.189 7.189 0 0 0 2.364.453c1.039.049 1.369.058 4.014.058s2.976-.012 4.014-.058a7.206 7.206 0 0 0 2.364-.453 4.977 4.977 0 0 0 2.848-2.848 7.185 7.185 0 0 0 .453-2.364c.049-1.039.058-1.369.058-4.014s-.012-2.976-.058-4.014a7.2 7.2 0 0 0-.453-2.364 4.779 4.779 0 0 0-1.123-1.725A4.745 4.745 0 0 0 16.116.511a7.164 7.164 0 0 0-2.364-.453C12.714.01 12.383 0 9.738 0zm0 1.753c2.6 0 2.909.013 3.936.058a5.365 5.365 0 0 1 1.807.337 3.2 3.2 0 0 1 1.849 1.848 5.376 5.376 0 0 1 .334 1.804c.046 1.027.057 1.336.057 3.936s-.012 2.909-.06 3.936a5.48 5.48 0 0 1-.342 1.807 3.092 3.092 0 0 1-.73 1.121 3.038 3.038 0 0 1-1.12.727 5.416 5.416 0 0 1-1.814.335c-1.034.046-1.338.057-3.943.057s-2.91-.012-3.943-.06a5.522 5.522 0 0 1-1.814-.342 3.016 3.016 0 0 1-1.119-.73 2.957 2.957 0 0 1-.73-1.12 5.526 5.526 0 0 1-.341-1.814c-.037-1.022-.05-1.338-.05-3.931s.013-2.91.05-3.945a5.52 5.52 0 0 1 .341-1.813 2.887 2.887 0 0 1 .73-1.121 2.88 2.88 0 0 1 1.119-.729 5.39 5.39 0 0 1 1.8-.342C6.793 1.741 7.1 1.728 9.7 1.728l.037.024zm0 2.985a5 5 0 1 0 5 5 5 5 0 0 0-5-5.001zm0 8.246a3.246 3.246 0 1 1 3.246-3.246 3.245 3.245 0 0 1-3.246 3.246zM16.1 4.54a1.169 1.169 0 1 1-1.169-1.168A1.169 1.169 0 0 1 16.1 4.54z" style="fill:#cbcbcb"/>
</svg>
