<svg xmlns="http://www.w3.org/2000/svg" width="17.041" height="17.04" viewBox="0 0 17.041 17.04">
    <path data-name="Icon awesome-linkedin-in" d="M3.814 17.041H.281V5.664h3.533zM2.046 4.112a2.056 2.056 0 1 1 2.046-2.065 2.063 2.063 0 0 1-2.046 2.065zm14.991 12.929h-3.525V11.5c0-1.32-.027-3.013-1.837-3.013-1.837 0-2.118 1.434-2.118 2.918v5.633H6.028V5.664h3.388v1.552h.049a3.712 3.712 0 0 1 3.343-1.837c3.576 0 4.233 2.355 4.233 5.413v6.25z" transform="translate(0 -.001)" style="fill:#cbcbcb"/>
</svg>
