<svg xmlns="http://www.w3.org/2000/svg" width="50" height="50" viewBox="0 0 50 50">
    <g data-name="Group 242" transform="translate(-891 -5798)">
        <rect data-name="Rectangle 43" width="50" height="50" rx="25" transform="translate(891 5798)" style="fill:#f1b61d"/>
        <g data-name="Group 224">
            <path data-name="Path 203" d="M914.962 5826.964a1.481 1.481 0 1 1-1.481-1.481 1.481 1.481 0 0 1 1.481 1.481z"/>
        </g>
        <g data-name="Group 225">
            <path data-name="Path 204" d="M914.962 5830.585a1.481 1.481 0 1 1-1.481-1.481 1.481 1.481 0 0 1 1.481 1.481z"/>
        </g>
        <g data-name="Group 226">
            <path data-name="Path 205" d="M918.583 5830.914a1.481 1.481 0 1 1-1.481-1.481 1.481 1.481 0 0 1 1.481 1.481z"/>
        </g>
        <g data-name="Group 227">
            <path data-name="Path 206" d="M914.962 5834.205a1.481 1.481 0 1 1-1.481-1.481 1.481 1.481 0 0 1 1.481 1.481z"/>
        </g>
        <g data-name="Group 228">
            <path data-name="Path 207" d="M914.962 5812.481a1.481 1.481 0 1 1-1.481-1.481 1.481 1.481 0 0 1 1.481 1.481z"/>
        </g>
        <g data-name="Group 229">
            <path data-name="Path 208" d="M914.962 5823.343a1.481 1.481 0 1 1-1.481-1.481 1.481 1.481 0 0 1 1.481 1.481z"/>
        </g>
        <g data-name="Group 230">
            <path data-name="Path 209" d="M918.583 5823.508a1.481 1.481 0 1 1-1.481-1.481 1.481 1.481 0 0 1 1.481 1.481z"/>
        </g>
        <g data-name="Group 231">
            <path data-name="Path 210" d="M918.583 5827.211a1.481 1.481 0 1 1-1.481-1.481 1.481 1.481 0 0 1 1.481 1.481z"/>
        </g>
        <g data-name="Group 232">
            <path data-name="Path 211" d="M914.962 5819.722a1.481 1.481 0 1 1-1.481-1.481 1.481 1.481 0 0 1 1.481 1.481z"/>
        </g>
        <g data-name="Group 233">
            <path data-name="Path 212" d="M918.583 5819.805a1.481 1.481 0 1 1-1.481-1.481 1.481 1.481 0 0 1 1.481 1.481z"/>
        </g>
        <g data-name="Group 234">
            <path data-name="Path 213" d="M914.962 5816.102a1.481 1.481 0 1 1-1.481-1.481 1.481 1.481 0 0 1 1.481 1.481z"/>
        </g>
        <g data-name="Group 235">
            <path data-name="Path 214" d="M918.583 5816.102a1.481 1.481 0 1 1-1.481-1.481 1.481 1.481 0 0 1 1.481 1.481z"/>
        </g>
        <g data-name="Group 236">
            <path data-name="Path 215" d="M922.204 5823.343a1.481 1.481 0 1 1-1.481-1.481 1.481 1.481 0 0 1 1.481 1.481z"/>
        </g>
        <g data-name="Group 237">
            <path data-name="Path 216" d="M922.204 5826.964a1.481 1.481 0 1 1-1.481-1.481 1.481 1.481 0 0 1 1.481 1.481z"/>
        </g>
        <g data-name="Group 238">
            <path data-name="Path 217" d="M925.825 5823.343a1.481 1.481 0 1 1-1.481-1.481 1.481 1.481 0 0 1 1.481 1.481z"/>
        </g>
        <g data-name="Group 239">
            <path data-name="Path 218" d="M922.204 5819.722a1.481 1.481 0 1 1-1.481-1.481 1.481 1.481 0 0 1 1.481 1.481z"/>
        </g>
    </g>
</svg>
