<svg xmlns="http://www.w3.org/2000/svg" width="211.27" height="29.493" viewBox="0 0 211.27 29.493">
    <g data-name="Logo black-01">
        <g data-name="Group 182">
            <path data-name="Path 176" d="M229.242 487.86h5.739l-9.9 23.455h-5.061l-3.978-10.072-3.886 10.072h-5.106l-9.85-23.455h5.7l7.051 17.727 2.756-7.655-4.111-10.026h5.016l2.44 7.162 2.486-7.162h5.016l-4.114 10.026 2.8 7.655z" transform="translate(-160.182 -483.737)" style="fill:#fff"/>
            <path data-name="Path 177" d="M391.46 510.461V486.78h6.057v23.681z" transform="translate(-313.858 -482.883)" style="fill:#fff"/>
            <path data-name="Path 178" d="M448.5 510.408a16.941 16.941 0 0 1-5.785-.994 12.982 12.982 0 0 1-4.745-2.937l2.169-3.932a16.2 16.2 0 0 0 4.18 2.53 10.712 10.712 0 0 0 3.955.813 5.648 5.648 0 0 0 2.825-.61 1.981 1.981 0 0 0 1.061-1.83 1.593 1.593 0 0 0-.587-1.316 5.417 5.417 0 0 0-1.694-.825q-1.106-.357-2.689-.8a41.66 41.66 0 0 1-4.383-1.65 6.447 6.447 0 0 1-2.643-2.029 5.26 5.26 0 0 1-.882-3.144 6.68 6.68 0 0 1 1.2-3.992 7.862 7.862 0 0 1 3.345-2.609 12.516 12.516 0 0 1 5.039-.938 14.361 14.361 0 0 1 4.79.792 11.385 11.385 0 0 1 4.112 2.553l-2.44 3.842a14.661 14.661 0 0 0-3.435-2.056 8.77 8.77 0 0 0-3.3-.656 6.931 6.931 0 0 0-1.786.221 2.968 2.968 0 0 0-1.356.735 1.936 1.936 0 0 0-.52 1.446 1.76 1.76 0 0 0 .474 1.312 4.04 4.04 0 0 0 1.446.823q.971.357 2.373.8a38.947 38.947 0 0 1 4.814 1.646 7.617 7.617 0 0 1 2.96 2.068 5.179 5.179 0 0 1 .995 3.359 6.436 6.436 0 0 1-2.576 5.428 11.178 11.178 0 0 1-6.917 1.95z" transform="translate(-350.651 -482.377)" style="fill:#fff"/>
            <path data-name="Path 179" d="M558.814 510.4a13.248 13.248 0 0 1-5.152-.961 11.666 11.666 0 0 1-3.932-2.637 11.941 11.941 0 0 1-2.509-3.844 12.063 12.063 0 0 1-.882-4.582 12.544 12.544 0 0 1 1.515-6.123 11.545 11.545 0 0 1 4.339-4.448 12.823 12.823 0 0 1 6.667-1.676 12.552 12.552 0 0 1 6.644 1.678 11.423 11.423 0 0 1 4.226 4.431 12.4 12.4 0 0 1 1.469 5.931c0 .357-.017.723-.046 1.1s-.061.679-.09.917h-18.3a6.675 6.675 0 0 0 1.063 3.09 5.727 5.727 0 0 0 2.261 2.01 6.575 6.575 0 0 0 2.96.683 6.983 6.983 0 0 0 3.412-.882 4.653 4.653 0 0 0 2.192-2.327l5.2 1.446a9.848 9.848 0 0 1-2.463 3.209 11.827 11.827 0 0 1-3.773 2.192 13.866 13.866 0 0 1-4.801.793zm-6.192-14.056H565a6.889 6.889 0 0 0-1.017-3.069 5.847 5.847 0 0 0-2.192-2.031 6.309 6.309 0 0 0-3.027-.729 6.058 6.058 0 0 0-2.96.729 5.91 5.91 0 0 0-2.169 2.031 6.871 6.871 0 0 0-1.013 3.069z" transform="translate(-436.38 -482.369)" style="fill:#fff"/>
            <path data-name="Path 180" d="M690.42 510.392a10.925 10.925 0 0 1-8.227-3.581 12.4 12.4 0 0 1-2.394-3.894 13.017 13.017 0 0 1 0-9.3 12.3 12.3 0 0 1 2.417-3.873 11.479 11.479 0 0 1 3.66-2.657 10.72 10.72 0 0 1 4.542-.967 10.562 10.562 0 0 1 4.519.967 11.812 11.812 0 0 1 3.66 2.657 12.065 12.065 0 0 1 2.44 3.873 13.016 13.016 0 0 1 0 9.3 12.23 12.23 0 0 1-2.417 3.894 11.2 11.2 0 0 1-3.66 2.634 10.909 10.909 0 0 1-4.54.947zm-9.22-12.023a10.277 10.277 0 0 0 1.243 5.018 9.9 9.9 0 0 0 3.322 3.623 8.522 8.522 0 0 0 9.24-.023 9.923 9.923 0 0 0 3.345-3.689 10.551 10.551 0 0 0 1.243-5.062 10.4 10.4 0 0 0-1.243-5.039 9.966 9.966 0 0 0-3.345-3.666 8.227 8.227 0 0 0-4.588-1.373 8.09 8.09 0 0 0-4.609 1.4 10.476 10.476 0 0 0-4.609 8.816z" transform="translate(-541.278 -482.361)" style="fill:#fff"/>
            <path data-name="Path 181" d="M830.369 487.86h2.26l-10.168 23.455h-1.989l-5.2-12.224-5.2 12.224h-1.989L797.92 487.86h2.215l8.994 20.975 4.837-11.457-3.932-9.472h2.033l3.209 7.713 3.163-7.713h2.079l-3.932 9.472 4.836 11.457z" transform="translate(-635.401 -483.737)" style="fill:#fff"/>
            <path data-name="Path 182" d="M960.66 511.311V487.86h2.3v23.451" transform="translate(-764.141 -483.737)" style="fill:#fff"/>
            <path data-name="Path 183" d="M962.99 589.08h14.265v2.3H962.99" transform="translate(-765.985 -563.811)" style="fill:#fff"/>
        </g>
        <g data-name="Group 183">
            <path data-name="Path 184" d="M62.259 487.86a13.529 13.529 0 1 0 13.529 13.529 13.53 13.53 0 0 0-13.529-13.529zm0 24.451a10.92 10.92 0 1 1 10.92-10.92 10.919 10.919 0 0 1-10.92 10.92z" transform="translate(-48.73 -485.425)" style="fill:#fff"/>
            <path data-name="Path 185" d="m99.712 495.5-1.812-2.181 13.452-15.619 1.248 2.863z" transform="translate(-86.118 -477.7)" style="fill:#fff"/>
            <path data-name="Path 186" d="m64.539 495.5 1.812-2.183L52.9 477.7l-1.248 2.863z" transform="translate(-50.95 -477.7)" style="fill:#fff"/>
        </g>
    </g>
</svg>
